<svg width="180" height="71" viewBox="0 0 180 71" fill="none" xmlns="http://www.w3.org/2000/svg">
<path d="M23.0507 35.8337V40H6.86705V35.8337H23.0507ZM8.35351 9.51701V40H3.09855V9.51701H8.35351ZM20.9361 22.2462V26.3496H6.86705V22.2462H20.9361ZM22.946 9.51701V13.7042H6.86705V9.51701H22.946ZM31.8857 21.9531V40H26.8401V17.3471H31.5926L31.8857 21.9531ZM31.0692 27.8361L29.3524 27.8152C29.3524 26.2519 29.5478 24.8074 29.9387 23.4814C30.3295 22.1554 30.9017 21.004 31.6554 20.0269C32.4091 19.036 33.3443 18.2753 34.4609 17.7449C35.5914 17.2006 36.8964 16.9284 38.3759 16.9284C39.4088 16.9284 40.3509 17.0819 41.2023 17.389C42.0676 17.6821 42.8144 18.1497 43.4425 18.7917C44.0845 19.4337 44.573 20.2572 44.908 21.2622C45.2569 22.2671 45.4314 23.4814 45.4314 24.9051V40H40.3858V25.3447C40.3858 24.2421 40.2183 23.3767 39.8833 22.7486C39.5623 22.1206 39.0947 21.6739 38.4806 21.4087C37.8804 21.1296 37.1616 20.99 36.3242 20.99C35.3751 20.99 34.5655 21.1714 33.8956 21.5343C33.2396 21.8972 32.7022 22.3927 32.2835 23.0208C31.8648 23.6489 31.5577 24.3747 31.3623 25.1982C31.1669 26.0216 31.0692 26.901 31.0692 27.8361ZM45.1173 26.4962L42.7516 27.0196C42.7516 25.6518 42.94 24.3607 43.3168 23.1464C43.7076 21.9182 44.2729 20.8434 45.0127 19.9223C45.7664 18.9871 46.6945 18.2543 47.7972 17.724C48.8998 17.1936 50.1629 16.9284 51.5866 16.9284C52.7451 16.9284 53.7779 17.0889 54.6852 17.4099C55.6063 17.717 56.388 18.2055 57.03 18.8755C57.672 19.5454 58.1605 20.4177 58.4955 21.4925C58.8305 22.5532 58.998 23.8373 58.998 25.3447V40H53.9315V25.3238C53.9315 24.1793 53.764 23.293 53.429 22.6649C53.108 22.0368 52.6474 21.6041 52.0472 21.3669C51.447 21.1156 50.7282 20.99 49.8908 20.99C49.1092 20.99 48.4183 21.1366 47.8181 21.4297C47.2319 21.7088 46.7364 22.1066 46.3316 22.623C45.9269 23.1255 45.6198 23.7047 45.4104 24.3607C45.215 25.0167 45.1173 25.7285 45.1173 26.4962ZM69.2567 21.7018V48.7094H64.2111V17.3471H68.8589L69.2567 21.7018ZM84.0167 28.4642V28.9039C84.0167 30.5508 83.8213 32.0792 83.4304 33.4889C83.0536 34.8846 82.4883 36.1059 81.7346 37.1527C80.9949 38.1855 80.0807 38.9881 78.992 39.5603C77.9033 40.1326 76.6471 40.4187 75.2235 40.4187C73.8138 40.4187 72.5786 40.1605 71.5178 39.6441C70.471 39.1137 69.5847 38.367 68.8589 37.4039C68.1331 36.4409 67.5469 35.3103 67.1003 34.0123C66.6676 32.7003 66.3605 31.2627 66.1791 29.6994V28.0036C66.3605 26.3427 66.6676 24.8353 67.1003 23.4814C67.5469 22.1275 68.1331 20.9621 68.8589 19.9851C69.5847 19.008 70.471 18.2543 71.5178 17.724C72.5646 17.1936 73.7859 16.9284 75.1816 16.9284C76.6053 16.9284 77.8684 17.2075 78.9711 17.7658C80.0737 18.3102 81.0019 19.0918 81.7556 20.1107C82.5093 21.1156 83.0745 22.3299 83.4514 23.7536C83.8282 25.1633 84.0167 26.7335 84.0167 28.4642ZM78.9711 28.9039V28.4642C78.9711 27.4174 78.8733 26.4474 78.6779 25.5541C78.4825 24.6468 78.1755 23.8513 77.7568 23.1674C77.338 22.4834 76.8007 21.9531 76.1447 21.5762C75.5026 21.1854 74.728 20.99 73.8208 20.99C72.9275 20.99 72.1598 21.1435 71.5178 21.4506C70.8758 21.7437 70.3384 22.1554 69.9057 22.6858C69.473 23.2162 69.1381 23.8373 68.9008 24.5491C68.6635 25.247 68.496 26.0077 68.3983 26.8312V30.8928C68.5658 31.8977 68.8519 32.8189 69.2567 33.6564C69.6615 34.4938 70.2337 35.1638 70.9735 35.6662C71.7272 36.1547 72.6902 36.399 73.8626 36.399C74.7699 36.399 75.5445 36.2036 76.1865 35.8128C76.8286 35.422 77.352 34.8846 77.7568 34.2007C78.1755 33.5028 78.4825 32.7003 78.6779 31.793C78.8733 30.8858 78.9711 29.9227 78.9711 28.9039ZM87.3455 28.9248V28.4433C87.3455 26.8102 87.5828 25.2959 88.0573 23.9001C88.5319 22.4904 89.2158 21.2691 90.1091 20.2363C91.0163 19.1895 92.1189 18.38 93.417 17.8077C94.729 17.2215 96.2085 16.9284 97.8554 16.9284C99.5164 16.9284 100.996 17.2215 102.294 17.8077C103.606 18.38 104.715 19.1895 105.623 20.2363C106.53 21.2691 107.221 22.4904 107.695 23.9001C108.17 25.2959 108.407 26.8102 108.407 28.4433V28.9248C108.407 30.5578 108.17 32.0722 107.695 33.4679C107.221 34.8637 106.53 36.0849 105.623 37.1318C104.715 38.1646 103.613 38.9741 102.315 39.5603C101.017 40.1326 99.5443 40.4187 97.8973 40.4187C96.2364 40.4187 94.7499 40.1326 93.4379 39.5603C92.1399 38.9741 91.0372 38.1646 90.13 37.1318C89.2228 36.0849 88.5319 34.8637 88.0573 33.4679C87.5828 32.0722 87.3455 30.5578 87.3455 28.9248ZM92.3911 28.4433V28.9248C92.3911 29.9437 92.4958 30.9067 92.7051 31.814C92.9145 32.7212 93.2425 33.5168 93.6891 34.2007C94.1358 34.8846 94.708 35.422 95.4059 35.8128C96.1038 36.2036 96.9342 36.399 97.8973 36.399C98.8324 36.399 99.642 36.2036 100.326 35.8128C101.024 35.422 101.596 34.8846 102.043 34.2007C102.489 33.5168 102.817 32.7212 103.027 31.814C103.25 30.9067 103.362 29.9437 103.362 28.9248V28.4433C103.362 27.4383 103.25 26.4892 103.027 25.5959C102.817 24.6887 102.482 23.8862 102.022 23.1883C101.575 22.4904 101.003 21.9461 100.305 21.5553C99.621 21.1505 98.8045 20.9481 97.8554 20.9481C96.9063 20.9481 96.0828 21.1505 95.385 21.5553C94.7011 21.9461 94.1358 22.4904 93.6891 23.1883C93.2425 23.8862 92.9145 24.6887 92.7051 25.5959C92.4958 26.4892 92.3911 27.4383 92.3911 28.4433ZM117.703 21.66V40H112.657V17.3471H117.473L117.703 21.66ZM124.633 17.2006L124.591 21.8903C124.284 21.8344 123.949 21.7926 123.586 21.7646C123.237 21.7367 122.888 21.7228 122.539 21.7228C121.674 21.7228 120.913 21.8484 120.257 22.0996C119.601 22.3369 119.05 22.6858 118.603 23.1464C118.17 23.5931 117.835 24.1374 117.598 24.7794C117.361 25.4215 117.221 26.1403 117.179 26.9359L116.028 27.0196C116.028 25.5959 116.168 24.277 116.447 23.0627C116.726 21.8484 117.145 20.7806 117.703 19.8595C118.275 18.9383 118.987 18.2195 119.838 17.703C120.704 17.1866 121.702 16.9284 122.832 16.9284C123.139 16.9284 123.467 16.9563 123.816 17.0121C124.179 17.068 124.451 17.1308 124.633 17.2006ZM139.225 17.3471V21.0319H126.454V17.3471H139.225ZM130.139 11.799H135.185V33.7401C135.185 34.438 135.282 34.9753 135.478 35.3522C135.687 35.7151 135.973 35.9593 136.336 36.0849C136.699 36.2106 137.125 36.2734 137.613 36.2734C137.962 36.2734 138.297 36.2524 138.618 36.2106C138.939 36.1687 139.197 36.1268 139.393 36.0849L139.414 39.9372C138.995 40.0628 138.506 40.1745 137.948 40.2722C137.404 40.3699 136.776 40.4187 136.064 40.4187C134.905 40.4187 133.88 40.2163 132.986 39.8116C132.093 39.3929 131.395 38.7159 130.893 37.7808C130.39 36.8456 130.139 35.6034 130.139 34.0541V11.799ZM155.89 35.4569V24.6538C155.89 23.8443 155.744 23.1464 155.451 22.5602C155.158 21.974 154.711 21.5204 154.111 21.1994C153.525 20.8783 152.785 20.7178 151.892 20.7178C151.068 20.7178 150.356 20.8574 149.756 21.1366C149.156 21.4157 148.688 21.7926 148.353 22.2671C148.018 22.7417 147.851 23.279 147.851 23.8792H142.826C142.826 22.9859 143.043 22.1206 143.475 21.2831C143.908 20.4457 144.536 19.6989 145.359 19.0429C146.183 18.3869 147.167 17.8705 148.311 17.4937C149.456 17.1168 150.74 16.9284 152.164 16.9284C153.867 16.9284 155.374 17.2145 156.686 17.7868C158.012 18.359 159.052 19.2244 159.805 20.3829C160.573 21.5274 160.957 22.965 160.957 24.6957V34.766C160.957 35.7988 161.027 36.727 161.166 37.5505C161.32 38.36 161.536 39.0649 161.815 39.665V40H156.644C156.407 39.4557 156.218 38.7648 156.079 37.9273C155.953 37.0759 155.89 36.2524 155.89 35.4569ZM156.623 26.224L156.665 29.3435H153.043C152.108 29.3435 151.284 29.4342 150.573 29.6157C149.861 29.7832 149.268 30.0344 148.793 30.3694C148.318 30.7044 147.963 31.1091 147.725 31.5837C147.488 32.0582 147.369 32.5956 147.369 33.1958C147.369 33.7959 147.509 34.3472 147.788 34.8497C148.067 35.3382 148.472 35.7221 149.002 36.0012C149.547 36.2803 150.203 36.4199 150.97 36.4199C152.003 36.4199 152.903 36.2106 153.671 35.7918C154.453 35.3592 155.067 34.8358 155.514 34.2216C155.96 33.5935 156.197 33.0004 156.225 32.4421L157.858 34.6822C157.691 35.2545 157.405 35.8686 157 36.5246C156.595 37.1806 156.065 37.8087 155.409 38.4089C154.767 38.9951 153.992 39.4766 153.085 39.8534C152.192 40.2303 151.159 40.4187 149.986 40.4187C148.507 40.4187 147.188 40.1256 146.029 39.5394C144.871 38.9392 143.964 38.1367 143.308 37.1318C142.652 36.1129 142.324 34.9614 142.324 33.6773C142.324 32.477 142.547 31.4162 142.994 30.495C143.454 29.5599 144.124 28.7782 145.004 28.1502C145.897 27.5221 146.986 27.0475 148.27 26.7265C149.554 26.3915 151.019 26.224 152.666 26.224H156.623ZM171.634 7.84212V40H166.568V7.84212H171.634Z" fill="white"/>
<path d="M7.14445 57.5997H2.94327L3.17531 56.2929L7.1933 56.3174C8.01563 56.3092 8.72804 56.1383 9.33053 55.8044C9.94117 55.4625 10.4297 54.9903 10.7961 54.3878C11.1706 53.7771 11.3986 53.0729 11.48 52.275C11.5533 51.5992 11.5125 50.9723 11.3578 50.3942C11.2032 49.808 10.9141 49.3317 10.4907 48.9653C10.0755 48.5989 9.4893 48.3954 8.73211 48.3547H5.00722L2.14944 64.8297H0.75719L3.84701 47.0479L8.78096 47.0601C9.79055 47.0927 10.6088 47.3451 11.2357 47.8173C11.8626 48.2814 12.3104 48.9042 12.5791 49.6859C12.8559 50.4675 12.9496 51.3305 12.86 52.275C12.7705 53.3497 12.4773 54.286 11.9807 55.0839C11.4922 55.8818 10.8368 56.5046 10.0144 56.9524C9.19212 57.3921 8.23546 57.6079 7.14445 57.5997ZM13.9592 58.9065L14.1179 57.5509C14.2238 56.7855 14.411 56.0365 14.6797 55.3037C14.9484 54.5628 15.3107 53.887 15.7666 53.2764C16.2226 52.6658 16.7762 52.1895 17.4276 51.8475C18.0871 51.4974 18.8524 51.3346 19.7236 51.359C20.5703 51.3834 21.2583 51.587 21.7875 51.9696C22.3167 52.3442 22.7157 52.8367 22.9844 53.4474C23.2612 54.058 23.4362 54.7175 23.5095 55.4258C23.5909 56.1342 23.5909 56.8384 23.5095 57.5386L23.3385 58.9187C23.2327 59.6677 23.0454 60.4168 22.7768 61.1658C22.5081 61.9067 22.1458 62.5784 21.6898 63.1809C21.2339 63.7834 20.6762 64.2597 20.0167 64.6098C19.3653 64.9599 18.5959 65.1228 17.7085 65.0983C16.878 65.0739 16.1982 64.8704 15.6689 64.4877C15.1397 64.0969 14.7367 63.6002 14.4599 62.9977C14.1831 62.3871 14.008 61.7276 13.9347 61.0193C13.8615 60.3109 13.8696 59.6067 13.9592 58.9065ZM15.4735 57.5386L15.3026 58.9431C15.2537 59.4235 15.2374 59.9446 15.2537 60.5063C15.2781 61.06 15.3718 61.5851 15.5346 62.0818C15.6974 62.5784 15.958 62.9855 16.3162 63.3031C16.6826 63.6206 17.1793 63.7916 17.8062 63.816C18.4982 63.8486 19.0926 63.7224 19.5892 63.4374C20.0859 63.1443 20.497 62.7535 20.8227 62.265C21.1484 61.7765 21.4049 61.2391 21.5921 60.6529C21.7875 60.0667 21.9219 59.4886 21.9951 58.9187L22.1783 57.5264C22.2353 57.0379 22.2475 56.5209 22.215 55.9754C22.1905 55.4218 22.0969 54.8966 21.9341 54.4C21.7712 53.8952 21.5026 53.4799 21.128 53.1543C20.7617 52.8286 20.265 52.6536 19.6381 52.6291C18.9705 52.6047 18.3924 52.739 17.9039 53.0321C17.4154 53.3253 17.0042 53.7201 16.6704 54.2168C16.3366 54.7134 16.072 55.2508 15.8766 55.8289C15.6812 56.3988 15.5468 56.9687 15.4735 57.5386ZM28.529 53.7893L26.6238 64.8297H25.2682L27.5642 51.6155H28.8831L28.529 53.7893ZM32.6202 51.5178L32.4248 52.8612C32.2783 52.8367 32.1358 52.8164 31.9974 52.8001C31.8671 52.7757 31.7368 52.7635 31.6066 52.7635C30.9878 52.7472 30.4545 52.8775 30.0067 53.1543C29.567 53.4311 29.1966 53.7975 28.8953 54.2534C28.6022 54.7012 28.358 55.1938 28.1626 55.7312C27.9672 56.2604 27.8043 56.7733 27.6741 57.27L27.1856 57.4776C27.2833 56.8588 27.4257 56.1912 27.613 55.4747C27.8084 54.7582 28.0771 54.0824 28.419 53.4474C28.7691 52.8042 29.2129 52.2872 29.7502 51.8964C30.2957 51.4974 30.9674 51.3142 31.7653 51.3468C31.9119 51.3468 32.0544 51.3631 32.1928 51.3956C32.3393 51.4282 32.4818 51.4689 32.6202 51.5178ZM39.728 51.6155L39.5082 52.8367H34.0003L34.2201 51.6155H39.728ZM36.7726 48.2325H38.1282L35.8688 61.6299C35.8444 61.8986 35.8281 62.1958 35.82 62.5214C35.82 62.839 35.8851 63.1158 36.0154 63.3519C36.1538 63.588 36.398 63.7101 36.7481 63.7183C36.911 63.7264 37.0697 63.7224 37.2244 63.7061C37.3873 63.6817 37.5501 63.6572 37.7129 63.6328L37.6397 64.8785C37.428 64.9355 37.2163 64.9803 37.0046 65.0128C36.8011 65.0454 36.5975 65.0576 36.394 65.0495C35.7752 65.0413 35.3233 64.8541 35.0383 64.4877C34.7615 64.1132 34.5946 63.6613 34.5376 63.1321C34.4806 62.5947 34.4766 62.0818 34.5254 61.5933L36.7726 48.2325ZM47.2389 62.4604L48.3991 55.2304C48.4479 54.7012 48.4032 54.2412 48.2647 53.8504C48.1345 53.4596 47.8984 53.1624 47.5564 52.9589C47.2144 52.7472 46.7626 52.6373 46.2008 52.6291C45.6553 52.6128 45.1627 52.7146 44.7231 52.9344C44.2834 53.1543 43.917 53.4637 43.6239 53.8626C43.3389 54.2534 43.1435 54.7175 43.0377 55.2549H41.7187C41.792 54.6768 41.967 54.1435 42.2439 53.655C42.5207 53.1665 42.8667 52.7513 43.2819 52.4093C43.7053 52.0673 44.1775 51.8027 44.6986 51.6155C45.2197 51.4282 45.7733 51.3427 46.3596 51.359C47.1575 51.3671 47.821 51.534 48.3502 51.8597C48.8795 52.1854 49.2621 52.6413 49.4982 53.2275C49.7343 53.8138 49.8158 54.5017 49.7425 55.2915L48.6433 62.0574C48.5701 62.5052 48.5334 62.9448 48.5334 63.3763C48.5334 63.7997 48.5375 64.2312 48.5456 64.6709L48.5212 64.8297H47.1534C47.1127 64.4307 47.1005 64.0358 47.1167 63.645C47.1412 63.2542 47.1819 62.8593 47.2389 62.4604ZM48.4724 57.1234L48.2892 58.2714L46.0665 58.247C45.5617 58.2551 45.065 58.3162 44.5765 58.4302C44.0961 58.536 43.6524 58.7111 43.2453 58.9553C42.8464 59.1996 42.5166 59.5212 42.2561 59.9201C42.0037 60.3109 41.849 60.7791 41.792 61.3246C41.735 61.7887 41.7635 62.2039 41.8775 62.5703C41.9996 62.9367 42.2072 63.2298 42.5003 63.4496C42.7934 63.6613 43.1842 63.7712 43.6728 63.7794C44.2997 63.7875 44.8737 63.6654 45.3948 63.413C45.9158 63.1606 46.3718 62.8145 46.7626 62.3749C47.1534 61.9352 47.4628 61.4427 47.6907 60.8971L47.9472 61.7154C47.7762 62.1958 47.5483 62.6436 47.2633 63.0588C46.9783 63.4659 46.6364 63.8241 46.2374 64.1335C45.8466 64.4429 45.4151 64.6831 44.9429 64.8541C44.4788 65.0251 43.9821 65.1105 43.4529 65.1105C42.7364 65.1105 42.1421 64.9477 41.6699 64.622C41.2058 64.2882 40.8638 63.8486 40.644 63.3031C40.4323 62.7494 40.3509 62.1306 40.3997 61.4467C40.4567 60.7058 40.644 60.0667 40.9615 59.5293C41.2791 58.9838 41.6943 58.5319 42.2072 58.1737C42.7202 57.8155 43.2942 57.5509 43.9292 57.3799C44.5643 57.2008 45.2238 57.1071 45.9077 57.099L48.4724 57.1234ZM56.4717 46.0709L53.1987 64.8297H51.8675L55.1283 46.0709H56.4717ZM65.5824 54.229L62.8834 69.9102H61.5278L64.7031 51.6155H65.9488L65.5824 54.229ZM72.3971 57.6119L72.2383 58.8454C72.1488 59.5537 71.9941 60.2824 71.7743 61.0315C71.5626 61.7724 71.2654 62.4522 70.8827 63.071C70.5082 63.6898 70.0197 64.1905 69.4172 64.5732C68.8147 64.9477 68.0819 65.1187 67.2189 65.0861C66.5838 65.0698 66.0343 64.9274 65.5702 64.6587C65.1061 64.3819 64.7275 64.0236 64.4344 63.584C64.1494 63.1443 63.9418 62.6517 63.8116 62.1062C63.6813 61.5607 63.6365 60.9989 63.6772 60.4209L64.2756 56.3418C64.3978 55.7474 64.5932 55.149 64.8619 54.5465C65.1305 53.9359 65.4643 53.3904 65.8633 52.91C66.2704 52.4215 66.7508 52.0388 67.3044 51.762C67.8662 51.4771 68.489 51.3427 69.1729 51.359C70.0116 51.3753 70.671 51.5829 71.1514 51.9819C71.6318 52.3808 71.9737 52.8978 72.1773 53.5329C72.3808 54.1598 72.4867 54.8315 72.4948 55.548C72.503 56.2645 72.4704 56.9524 72.3971 57.6119ZM70.9194 58.8454L71.0781 57.5875C71.127 57.1071 71.1555 56.5861 71.1636 56.0243C71.1799 55.4625 71.1229 54.9292 70.9926 54.4244C70.8624 53.9115 70.6222 53.4881 70.2721 53.1543C69.9301 52.8205 69.4335 52.6454 68.7821 52.6291C68.2855 52.621 67.8255 52.7146 67.4021 52.91C66.9787 53.0973 66.6001 53.3537 66.2663 53.6794C65.9325 54.0051 65.6475 54.3796 65.4114 54.803C65.1835 55.2182 65.0084 55.6457 64.8863 56.0853L64.1413 60.7628C64.1332 61.3083 64.2512 61.809 64.4955 62.265C64.7397 62.7128 65.0735 63.0792 65.4969 63.3641C65.9203 63.6409 66.4047 63.7875 66.9502 63.8038C67.6504 63.8445 68.2407 63.7183 68.7211 63.4252C69.2014 63.1239 69.5882 62.725 69.8813 62.2283C70.1744 61.7317 70.4024 61.1903 70.5652 60.604C70.728 60.0097 70.8461 59.4235 70.9194 58.8454ZM77.4776 53.7893L75.5724 64.8297H74.2168L76.5128 51.6155H77.8318L77.4776 53.7893ZM81.5689 51.5178L81.3735 52.8612C81.2269 52.8367 81.0844 52.8164 80.946 52.8001C80.8158 52.7757 80.6855 52.7635 80.5552 52.7635C79.9364 52.7472 79.4032 52.8775 78.9554 53.1543C78.5157 53.4311 78.1452 53.7975 77.844 54.2534C77.5509 54.7012 77.3066 55.1938 77.1112 55.7312C76.9158 56.2604 76.753 56.7733 76.6227 57.27L76.1342 57.4776C76.2319 56.8588 76.3744 56.1912 76.5617 55.4747C76.7571 54.7582 77.0257 54.0824 77.3677 53.4474C77.7178 52.8042 78.1615 52.2872 78.6989 51.8964C79.2444 51.4974 79.9161 51.3142 80.714 51.3468C80.8605 51.3468 81.003 51.3631 81.1414 51.3956C81.288 51.4282 81.4305 51.4689 81.5689 51.5178ZM88.0294 62.4604L89.1896 55.2304C89.2385 54.7012 89.1937 54.2412 89.0553 53.8504C88.925 53.4596 88.6889 53.1624 88.3469 52.9589C88.005 52.7472 87.5531 52.6373 86.9913 52.6291C86.4458 52.6128 85.9533 52.7146 85.5136 52.9344C85.0739 53.1543 84.7076 53.4637 84.4144 53.8626C84.1295 54.2534 83.9341 54.7175 83.8282 55.2549H82.5093C82.5825 54.6768 82.7576 54.1435 83.0344 53.655C83.3112 53.1665 83.6573 52.7513 84.0725 52.4093C84.4959 52.0673 84.9681 51.8027 85.4892 51.6155C86.0102 51.4282 86.5639 51.3427 87.1501 51.359C87.948 51.3671 88.6116 51.534 89.1408 51.8597C89.67 52.1854 90.0527 52.6413 90.2888 53.2275C90.5249 53.8138 90.6063 54.5017 90.533 55.2915L89.4339 62.0574C89.3606 62.5052 89.324 62.9448 89.324 63.3763C89.324 63.7997 89.328 64.2312 89.3362 64.6709L89.3118 64.8297H87.9439C87.9032 64.4307 87.891 64.0358 87.9073 63.645C87.9317 63.2542 87.9724 62.8593 88.0294 62.4604ZM89.2629 57.1234L89.0797 58.2714L86.857 58.247C86.3522 58.2551 85.8556 58.3162 85.367 58.4302C84.8867 58.536 84.4429 58.7111 84.0359 58.9553C83.6369 59.1996 83.3072 59.5212 83.0466 59.9201C82.7942 60.3109 82.6395 60.7791 82.5825 61.3246C82.5255 61.7887 82.554 62.2039 82.668 62.5703C82.7902 62.9367 82.9978 63.2298 83.2909 63.4496C83.584 63.6613 83.9748 63.7712 84.4633 63.7794C85.0902 63.7875 85.6642 63.6654 86.1853 63.413C86.7064 63.1606 87.1623 62.8145 87.5531 62.3749C87.9439 61.9352 88.2533 61.4427 88.4813 60.8971L88.7378 61.7154C88.5668 62.1958 88.3388 62.6436 88.0538 63.0588C87.7689 63.4659 87.4269 63.8241 87.028 64.1335C86.6372 64.4429 86.2056 64.6831 85.7334 64.8541C85.2693 65.0251 84.7727 65.1105 84.2435 65.1105C83.527 65.1105 82.9326 64.9477 82.4604 64.622C81.9963 64.2882 81.6544 63.8486 81.4345 63.3031C81.2229 62.7494 81.1414 62.1306 81.1903 61.4467C81.2473 60.7058 81.4345 60.0667 81.7521 59.5293C82.0696 58.9838 82.4848 58.5319 82.9978 58.1737C83.5107 57.8155 84.0847 57.5509 84.7198 57.3799C85.3548 57.2008 86.0143 57.1071 86.6982 57.099L89.2629 57.1234ZM96.7859 63.816C97.4454 63.8486 98.0032 63.7305 98.4591 63.4618C98.915 63.1931 99.2814 62.8227 99.5582 62.3505C99.8432 61.8782 100.059 61.3449 100.206 60.7506L101.439 60.7384C101.309 61.5526 101.036 62.2975 100.621 62.9733C100.206 63.6409 99.6682 64.1702 99.0087 64.561C98.3492 64.9436 97.5798 65.1228 96.7005 65.0983C95.8374 65.0739 95.1413 64.8826 94.6121 64.5243C94.0829 64.158 93.6839 63.6776 93.4152 63.0832C93.1547 62.4889 92.9959 61.8375 92.9389 61.1292C92.8819 60.4127 92.8942 59.6962 92.9756 58.9797L93.1832 57.4776C93.289 56.6878 93.4682 55.9266 93.7206 55.1938C93.9729 54.4529 94.319 53.7893 94.7586 53.2031C95.1983 52.6169 95.7438 52.1569 96.3951 51.8231C97.0465 51.4893 97.82 51.3386 98.7156 51.3712C99.6193 51.3956 100.336 51.6318 100.865 52.0796C101.394 52.5192 101.769 53.0973 101.989 53.8138C102.208 54.5221 102.294 55.2793 102.245 56.0853L100.95 56.0731C100.991 55.5113 100.95 54.974 100.828 54.461C100.706 53.9481 100.47 53.5247 100.12 53.1909C99.7781 52.849 99.2814 52.6658 98.6301 52.6413C97.9299 52.6088 97.3355 52.7309 96.847 53.0077C96.3585 53.2764 95.9555 53.6509 95.638 54.1313C95.3286 54.6035 95.0843 55.1327 94.9052 55.7189C94.7261 56.297 94.5999 56.8832 94.5266 57.4776L94.3312 58.9797C94.2661 59.5008 94.2335 60.0423 94.2335 60.604C94.2416 61.1577 94.319 61.6747 94.4655 62.1551C94.6121 62.6354 94.8685 63.0303 95.2349 63.3397C95.6095 63.6409 96.1265 63.7997 96.7859 63.816ZM104.114 58.9065L104.272 57.5509C104.378 56.7855 104.565 56.0365 104.834 55.3037C105.103 54.5628 105.465 53.887 105.921 53.2764C106.377 52.6658 106.931 52.1895 107.582 51.8475C108.242 51.4974 109.007 51.3346 109.878 51.359C110.725 51.3834 111.413 51.587 111.942 51.9696C112.471 52.3442 112.87 52.8367 113.139 53.4474C113.416 54.058 113.591 54.7175 113.664 55.4258C113.745 56.1342 113.745 56.8384 113.664 57.5386L113.493 58.9187C113.387 59.6677 113.2 60.4168 112.931 61.1658C112.663 61.9067 112.3 62.5784 111.844 63.1809C111.388 63.7834 110.831 64.2597 110.171 64.6098C109.52 64.9599 108.75 65.1228 107.863 65.0983C107.032 65.0739 106.353 64.8704 105.823 64.4877C105.294 64.0969 104.891 63.6002 104.614 62.9977C104.337 62.3871 104.162 61.7276 104.089 61.0193C104.016 60.3109 104.024 59.6067 104.114 58.9065ZM105.628 57.5386L105.457 58.9431C105.408 59.4235 105.392 59.9446 105.408 60.5063C105.433 61.06 105.526 61.5851 105.689 62.0818C105.852 62.5784 106.112 62.9855 106.471 63.3031C106.837 63.6206 107.334 63.7916 107.961 63.816C108.653 63.8486 109.247 63.7224 109.744 63.4374C110.24 63.1443 110.651 62.7535 110.977 62.265C111.303 61.7765 111.559 61.2391 111.747 60.6529C111.942 60.0667 112.076 59.4886 112.15 58.9187L112.333 57.5264C112.39 57.0379 112.402 56.5209 112.369 55.9754C112.345 55.4218 112.251 54.8966 112.089 54.4C111.926 53.8952 111.657 53.4799 111.282 53.1543C110.916 52.8286 110.419 52.6536 109.793 52.6291C109.125 52.6047 108.547 52.739 108.058 53.0321C107.57 53.3253 107.159 53.7201 106.825 54.2168C106.491 54.7134 106.226 55.2508 106.031 55.8289C105.836 56.3988 105.701 56.9687 105.628 57.5386ZM118.879 61.7643L123.227 51.6277L124.265 51.6155L123.3 54.3633L118.769 64.8297H117.804L118.879 61.7643ZM118.109 51.6155L118.671 61.7765L118.561 64.8297H117.633L116.803 51.6155H118.109ZM125.559 61.7032L129.541 51.6155H130.945L125.51 64.8297H124.521L125.559 61.7032ZM124.387 51.6155L125.242 61.752L125.29 64.8297H124.387L123.41 54.229L123.446 51.6155H124.387ZM134.413 54.4366L132.63 64.8297H131.275L133.571 51.6155H134.853L134.413 54.4366ZM133.62 57.4043L133.143 57.099C133.249 56.4558 133.428 55.7963 133.681 55.1205C133.941 54.4366 134.271 53.8097 134.67 53.2398C135.069 52.6617 135.557 52.2017 136.135 51.8597C136.713 51.5096 137.389 51.3427 138.163 51.359C138.83 51.3753 139.368 51.534 139.775 51.8353C140.182 52.1365 140.475 52.5274 140.654 53.0077C140.833 53.4799 140.935 53.997 140.959 54.5587C140.992 55.1205 140.98 55.6742 140.923 56.2197L139.482 64.8297H138.15L139.592 56.1952C139.64 55.6823 139.645 55.1531 139.604 54.6076C139.571 54.0621 139.417 53.6021 139.14 53.2275C138.863 52.853 138.395 52.6536 137.735 52.6291C137.141 52.621 136.608 52.7675 136.135 53.0688C135.671 53.37 135.268 53.769 134.926 54.2656C134.593 54.7541 134.316 55.2752 134.096 55.8289C133.876 56.3825 133.717 56.9077 133.62 57.4043ZM146.748 51.6155L144.452 64.8297H143.121L145.417 51.6155H146.748ZM145.869 47.8173C145.893 47.5161 145.987 47.2881 146.15 47.1334C146.321 46.9706 146.541 46.8566 146.809 46.7914C147.078 46.8403 147.286 46.9461 147.432 47.109C147.587 47.2637 147.656 47.4957 147.64 47.8051C147.607 48.0982 147.51 48.3221 147.347 48.4768C147.184 48.6315 146.968 48.7373 146.699 48.7943C146.431 48.7455 146.219 48.6437 146.064 48.489C145.918 48.3343 145.853 48.1104 145.869 47.8173ZM152.378 63.816C153.038 63.8486 153.596 63.7305 154.051 63.4618C154.507 63.1931 154.874 62.8227 155.151 62.3505C155.436 61.8782 155.651 61.3449 155.798 60.7506L157.031 60.7384C156.901 61.5526 156.628 62.2975 156.213 62.9733C155.798 63.6409 155.261 64.1702 154.601 64.561C153.942 64.9436 153.172 65.1228 152.293 65.0983C151.43 65.0739 150.734 64.8826 150.204 64.5243C149.675 64.158 149.276 63.6776 149.008 63.0832C148.747 62.4889 148.588 61.8375 148.531 61.1292C148.474 60.4127 148.487 59.6962 148.568 58.9797L148.776 57.4776C148.881 56.6878 149.061 55.9266 149.313 55.1938C149.565 54.4529 149.911 53.7893 150.351 53.2031C150.791 52.6169 151.336 52.1569 151.988 51.8231C152.639 51.4893 153.412 51.3386 154.308 51.3712C155.212 51.3956 155.928 51.6318 156.457 52.0796C156.987 52.5192 157.361 53.0973 157.581 53.8138C157.801 54.5221 157.886 55.2793 157.837 56.0853L156.543 56.0731C156.584 55.5113 156.543 54.974 156.421 54.461C156.299 53.9481 156.063 53.5247 155.712 53.1909C155.37 52.849 154.874 52.6658 154.222 52.6413C153.522 52.6088 152.928 52.7309 152.439 53.0077C151.951 53.2764 151.548 53.6509 151.23 54.1313C150.921 54.6035 150.677 55.1327 150.498 55.7189C150.318 56.297 150.192 56.8832 150.119 57.4776L149.924 58.9797C149.858 59.5008 149.826 60.0423 149.826 60.604C149.834 61.1577 149.911 61.6747 150.058 62.1551C150.204 62.6354 150.461 63.0303 150.827 63.3397C151.202 63.6409 151.719 63.7997 152.378 63.816ZM167.217 63.5595L166.985 64.8297H158.937L159.156 63.5595H167.217ZM168.67 52.7146L159.352 64.8297H158.509L158.692 63.645L167.962 51.6277H168.841L168.67 52.7146ZM168.292 51.6155L168.059 52.8978H160.72L160.939 51.6155H168.292ZM173.03 63.3031L178.294 51.6155H179.772L172.627 66.9669C172.464 67.3495 172.273 67.7281 172.053 68.1027C171.841 68.4853 171.597 68.8354 171.32 69.153C171.052 69.4786 170.73 69.7351 170.355 69.9224C169.989 70.1178 169.57 70.2114 169.098 70.2033C168.927 70.2033 168.756 70.187 168.585 70.1544C168.406 70.1218 168.226 70.0811 168.047 70.0323L168.206 68.7866C168.304 68.811 168.406 68.8314 168.511 68.8476C168.609 68.8721 168.711 68.8843 168.817 68.8843C169.305 68.9087 169.724 68.7988 170.075 68.5545C170.425 68.3184 170.718 68.0131 170.954 67.6386C171.198 67.2641 171.41 66.8732 171.589 66.4662L173.03 63.3031ZM172.065 51.6155L173.409 63.0222L173.506 64.5365L172.456 65.1228L170.661 51.6155H172.065Z" fill="#BC8127"/>
<ellipse cx="98.5059" cy="28.5" rx="12.8131" ry="12.5" fill="#BC8127"/>
<path d="M93.8513 26.434C94.4565 23.1323 95.2509 21.6187 97.0078 19.1719" stroke="#444444" stroke-width="1.78655" stroke-linecap="round"/>
<path d="M90.6203 29.7212C90.2208 33.115 96.4737 35.7294 100.94 33.9864" stroke="#444444" stroke-width="1.78655" stroke-linecap="round"/>
<path d="M99.5701 28.1769C100.143 25.1905 100.893 23.6134 102.727 20.9148" stroke="#444444" stroke-width="1.78655" stroke-linecap="round"/>
</svg>
